<svg width="98" height="19" viewBox="0 0 98 19" fill="none" xmlns="http://www.w3.org/2000/svg">
<path d="M2.05 18.25C1.56667 18.25 1.21667 18.175 1 18.025C0.783333 17.8917 0.641667 17.7083 0.575 17.475C0.525 17.2417 0.5 16.9917 0.5 16.725V2.3C0.5 2.01667 0.525 1.75833 0.575 1.525C0.641667 1.29167 0.775 1.10833 0.975 0.974999C1.19167 0.841666 1.54167 0.775 2.025 0.775C2.49167 0.775 2.825 0.841666 3.025 0.974999C3.24167 1.10833 3.375 1.29167 3.425 1.525C3.49167 1.75833 3.525 2.01667 3.525 2.3V15.55H11.15C11.4 15.55 11.625 15.575 11.825 15.625C12.025 15.6583 12.1833 15.775 12.3 15.975C12.4167 16.1583 12.475 16.4583 12.475 16.875C12.475 17.2917 12.4167 17.6 12.3 17.8C12.1833 17.9833 12.025 18.1 11.825 18.15C11.625 18.2167 11.4 18.25 11.15 18.25H2.05ZM20.0881 18.4C19.2881 18.4 18.5048 18.25 17.7381 17.95C16.9881 17.6333 16.3048 17.1917 15.6881 16.625C15.0881 16.0583 14.6048 15.3917 14.2381 14.625C13.8881 13.8583 13.7131 13.0167 13.7131 12.1C13.7131 11.2167 13.8798 10.3917 14.2131 9.625C14.5464 8.85833 15.0048 8.18333 15.5881 7.6C16.1714 7.01667 16.8381 6.56667 17.5881 6.25C18.3548 5.91667 19.1714 5.75 20.0381 5.75C21.2048 5.75 22.2631 6.03333 23.2131 6.6C24.1631 7.15 24.9214 7.9 25.4881 8.85C26.0548 9.8 26.3381 10.875 26.3381 12.075C26.3381 13.025 26.1631 13.8917 25.8131 14.675C25.4631 15.4417 24.9881 16.1083 24.3881 16.675C23.7881 17.225 23.1131 17.65 22.3631 17.95C21.6298 18.25 20.8714 18.4 20.0881 18.4ZM20.0381 15.45C20.5881 15.45 21.1131 15.3167 21.6131 15.05C22.1298 14.7667 22.5464 14.3667 22.8631 13.85C23.1964 13.3333 23.3631 12.725 23.3631 12.025C23.3631 11.375 23.2131 10.8 22.9131 10.3C22.6298 9.8 22.2381 9.40833 21.7381 9.125C21.2381 8.84167 20.6631 8.7 20.0131 8.7C19.3964 8.7 18.8381 8.85 18.3381 9.15C17.8381 9.43333 17.4381 9.83333 17.1381 10.35C16.8548 10.85 16.7131 11.4167 16.7131 12.05C16.7131 12.75 16.8714 13.3583 17.1881 13.875C17.5048 14.375 17.9131 14.7667 18.4131 15.05C18.9298 15.3167 19.4714 15.45 20.0381 15.45ZM34.2529 18.3C33.4529 18.3 32.6696 18.1667 31.9029 17.9C31.1529 17.6167 30.4696 17.2083 29.8529 16.675C29.2529 16.1417 28.7696 15.4917 28.4029 14.725C28.0529 13.9417 27.8779 13.0583 27.8779 12.075C27.8779 11.0917 28.0529 10.2167 28.4029 9.45C28.7696 8.68333 29.2529 8.03333 29.8529 7.5C30.4529 6.96667 31.1279 6.55833 31.8779 6.275C32.6279 5.99167 33.4029 5.85 34.2029 5.85C34.7863 5.85 35.3363 5.93333 35.8529 6.1C36.3863 6.26667 36.8446 6.46667 37.2279 6.7C37.6113 6.93333 37.8863 7.16667 38.0529 7.4C38.2696 7.6 38.4529 7.79167 38.6029 7.975C38.7529 8.15833 38.8029 8.38333 38.7529 8.65C38.7029 8.81667 38.6279 8.975 38.5279 9.125C38.4279 9.25833 38.3029 9.4 38.1529 9.55C37.7529 10 37.3613 10.1667 36.9779 10.05C36.7613 9.93333 36.5446 9.80833 36.3279 9.675C36.1113 9.54167 35.8863 9.41667 35.6529 9.3C35.4363 9.16667 35.2113 9.05833 34.9779 8.975C34.7446 8.89167 34.4863 8.85 34.2029 8.85C33.5696 8.85 33.0029 8.99167 32.5029 9.275C32.0196 9.54167 31.6363 9.91667 31.3529 10.4C31.0863 10.8833 30.9529 11.4417 30.9529 12.075C30.9529 12.7083 31.0863 13.275 31.3529 13.775C31.6363 14.2583 32.0196 14.6417 32.5029 14.925C32.9863 15.1917 33.5363 15.325 34.1529 15.325C34.4529 15.325 34.7363 15.2917 35.0029 15.225C35.2863 15.1417 35.5363 15.0417 35.7529 14.925C35.9696 14.7917 36.1446 14.6583 36.2779 14.525C36.4613 14.4083 36.6279 14.3 36.7779 14.2C36.9279 14.1 37.0863 14.05 37.2529 14.05C37.4529 14.05 37.6446 14.125 37.8279 14.275C38.0279 14.4083 38.2446 14.625 38.4779 14.925C38.6946 15.175 38.8113 15.4167 38.8279 15.65C38.8613 15.8833 38.8113 16.1083 38.6779 16.325C38.5613 16.5417 38.3613 16.7417 38.0779 16.925C37.8779 17.125 37.5779 17.3333 37.1779 17.55C36.7946 17.75 36.3446 17.925 35.8279 18.075C35.3279 18.225 34.8029 18.3 34.2529 18.3ZM50.7738 15.55C51.2072 15.9167 51.4322 16.2583 51.4488 16.575C51.4822 16.8917 51.3155 17.2583 50.9488 17.675C50.6655 17.9917 50.4155 18.2 50.1988 18.3C49.9822 18.4 49.7655 18.4 49.5488 18.3C49.3322 18.2167 49.0738 18.05 48.7738 17.8L43.9988 13.775V16.75C43.9988 17.0167 43.9655 17.2667 43.8988 17.5C43.8488 17.7333 43.7155 17.9167 43.4988 18.05C43.2988 18.1833 42.9655 18.25 42.4988 18.25C42.0322 18.25 41.6905 18.175 41.4738 18.025C41.2738 17.8917 41.1488 17.7083 41.0988 17.475C41.0488 17.2417 41.0238 16.9917 41.0238 16.725V1.8C41.0238 1.51667 41.0488 1.26667 41.0988 1.05C41.1655 0.816666 41.2988 0.633332 41.4988 0.499999C41.7155 0.349999 42.0572 0.274999 42.5238 0.274999C42.9905 0.274999 43.3238 0.349999 43.5238 0.499999C43.7238 0.633332 43.8488 0.816666 43.8988 1.05C43.9655 1.26667 43.9988 1.525 43.9988 1.825V10.025L47.4488 6.675C47.7155 6.425 47.9655 6.25833 48.1988 6.175C48.4322 6.075 48.6572 6.06667 48.8738 6.15C49.1072 6.21667 49.3488 6.39167 49.5988 6.675C50.0155 7.125 50.2155 7.5 50.1988 7.8C50.1822 8.08333 49.9738 8.425 49.5738 8.825L46.1988 11.95L50.7738 15.55ZM58.5938 18.4C57.5104 18.4 56.5604 18.225 55.7438 17.875C54.9438 17.525 54.2688 17.05 53.7188 16.45C53.1854 15.8333 52.7771 15.15 52.4938 14.4C52.2271 13.6333 52.0938 12.8417 52.0938 12.025C52.0938 10.825 52.3688 9.75833 52.9188 8.825C53.4688 7.89167 54.2271 7.15833 55.1938 6.625C56.1771 6.09167 57.3021 5.825 58.5688 5.825C59.4688 5.825 60.2604 5.96667 60.9438 6.25C61.6271 6.53333 62.1938 6.90833 62.6438 7.375C63.1104 7.825 63.4604 8.325 63.6938 8.875C63.9438 9.425 64.0688 9.95833 64.0688 10.475C64.0688 11.3583 63.8521 12 63.4188 12.4C63.0021 12.8 62.4771 13 61.8438 13H55.2438C55.2604 13.5667 55.4354 14.0583 55.7688 14.475C56.1188 14.8917 56.5521 15.2167 57.0688 15.45C57.6021 15.6667 58.1438 15.775 58.6937 15.775C59.1104 15.775 59.4771 15.75 59.7938 15.7C60.1271 15.65 60.4104 15.5917 60.6438 15.525C60.8771 15.4417 61.0771 15.3583 61.2438 15.275C61.4271 15.1917 61.5938 15.1167 61.7438 15.05C61.8938 14.9833 62.0354 14.9417 62.1688 14.925C62.3521 14.9083 62.5354 14.95 62.7188 15.05C62.9021 15.15 63.0521 15.325 63.1688 15.575C63.2688 15.7417 63.3354 15.9 63.3688 16.05C63.4188 16.1833 63.4438 16.3167 63.4438 16.45C63.4438 16.7833 63.2438 17.1 62.8438 17.4C62.4438 17.6833 61.8771 17.9167 61.1438 18.1C60.4271 18.3 59.5771 18.4 58.5938 18.4ZM55.2438 11.225H60.3688C60.6521 11.225 60.8688 11.1833 61.0188 11.1C61.1688 11 61.2438 10.8 61.2438 10.5C61.2438 10.1167 61.1271 9.775 60.8938 9.475C60.6604 9.15833 60.3438 8.91667 59.9438 8.75C59.5438 8.56667 59.0771 8.475 58.5438 8.475C57.9271 8.475 57.3688 8.6 56.8688 8.85C56.3688 9.08333 55.9688 9.40833 55.6688 9.825C55.3854 10.2417 55.2438 10.7083 55.2438 11.225ZM71.4203 18.225C70.6536 18.225 69.9286 18.0667 69.2453 17.75C68.562 17.4333 67.962 17 67.4453 16.45C66.9286 15.8833 66.5203 15.225 66.2203 14.475C65.9203 13.7083 65.7703 12.8917 65.7703 12.025C65.7703 11.1917 65.9203 10.4083 66.2203 9.675C66.5203 8.925 66.9286 8.275 67.4453 7.725C67.9786 7.15833 68.587 6.71667 69.2703 6.4C69.9536 6.08333 70.6703 5.925 71.4203 5.925C72.2203 5.925 72.937 6.08333 73.5703 6.4C74.2036 6.71667 74.737 7.15833 75.1703 7.725C75.6203 8.275 75.962 8.925 76.1953 9.675C76.4286 10.4083 76.5536 11.2 76.5703 12.05C76.5703 12.9 76.4536 13.7 76.2203 14.45C76.0036 15.1833 75.6703 15.8333 75.2203 16.4C74.787 16.9667 74.2453 17.4167 73.5953 17.75C72.962 18.0667 72.237 18.225 71.4203 18.225ZM71.8203 15.3C72.4036 15.3 72.9203 15.1667 73.3703 14.9C73.837 14.6167 74.2036 14.2333 74.4703 13.75C74.7536 13.2667 74.8953 12.7167 74.8953 12.1C74.8953 11.4667 74.7536 10.9083 74.4703 10.425C74.2036 9.94167 73.837 9.55833 73.3703 9.275C72.9203 8.99167 72.4036 8.85 71.8203 8.85C71.237 8.85 70.712 8.99167 70.2453 9.275C69.7786 9.54167 69.4036 9.925 69.1203 10.425C68.8536 10.9083 68.7203 11.4667 68.7203 12.1C68.7203 12.7167 68.8536 13.2667 69.1203 13.75C69.4036 14.2333 69.7786 14.6167 70.2453 14.9C70.7286 15.1667 71.2536 15.3 71.8203 15.3ZM76.4453 18.225C75.9786 18.225 75.637 18.15 75.4203 18C75.2036 17.8333 75.062 17.575 74.9953 17.225V1.825C74.9953 1.54167 75.012 1.29167 75.0453 1.075C75.0953 0.841666 75.2203 0.658332 75.4203 0.524998C75.637 0.374999 75.9703 0.3 76.4203 0.3C76.9036 0.3 77.2453 0.366666 77.4453 0.499999C77.6453 0.633332 77.7703 0.816666 77.8203 1.05C77.887 1.26667 77.9203 1.51667 77.9203 1.8V16.7C77.9203 16.9833 77.8953 17.2417 77.8453 17.475C77.7953 17.7083 77.662 17.8917 77.4453 18.025C77.2453 18.1583 76.912 18.225 76.4453 18.225ZM82.0002 18.25C81.5335 18.25 81.1919 18.175 80.9752 18.025C80.7585 17.8917 80.6252 17.7083 80.5752 17.475C80.5252 17.2417 80.5002 16.9833 80.5002 16.7V2.275C80.5002 2.00833 80.5252 1.75833 80.5752 1.525C80.6419 1.29167 80.7752 1.10833 80.9752 0.974999C81.1919 0.841666 81.5419 0.775 82.0252 0.775C82.4919 0.775 82.8252 0.841666 83.0252 0.974999C83.2419 1.10833 83.3752 1.29167 83.4252 1.525C83.4919 1.75833 83.5252 2.01667 83.5252 2.3V16.725C83.5252 17.0083 83.4919 17.2667 83.4252 17.5C83.3752 17.7167 83.2419 17.8917 83.0252 18.025C82.8085 18.175 82.4669 18.25 82.0002 18.25ZM87.566 18.225C87.116 18.225 86.7827 18.15 86.566 18C86.366 17.8667 86.241 17.6917 86.191 17.475C86.141 17.2417 86.116 16.9833 86.116 16.7V7.35C86.116 7.08333 86.141 6.84167 86.191 6.625C86.241 6.40833 86.3743 6.24167 86.591 6.125C86.8077 5.99167 87.141 5.925 87.591 5.925C87.991 5.925 88.291 5.975 88.491 6.075C88.691 6.175 88.8243 6.3 88.891 6.45C88.9577 6.6 88.991 6.75 88.991 6.9C89.0077 7.05 89.0243 7.16667 89.041 7.25L88.941 8.05C89.041 7.78333 89.2077 7.525 89.441 7.275C89.6743 7.025 89.9577 6.8 90.291 6.6C90.6243 6.38333 90.9827 6.21667 91.366 6.1C91.766 5.96667 92.1743 5.9 92.591 5.9C93.3743 5.9 94.0743 6.04167 94.691 6.325C95.3077 6.60833 95.8327 7.00833 96.266 7.525C96.716 8.04167 97.0577 8.65833 97.291 9.375C97.5243 10.075 97.641 10.8667 97.641 11.75V16.725C97.641 17.0083 97.6077 17.2667 97.541 17.5C97.491 17.7167 97.366 17.8917 97.166 18.025C96.966 18.1583 96.6243 18.225 96.141 18.225C95.6743 18.225 95.3327 18.15 95.116 18C94.8993 17.8667 94.766 17.6917 94.716 17.475C94.666 17.2417 94.641 16.9833 94.641 16.7V11.725C94.641 11.125 94.5327 10.6083 94.316 10.175C94.116 9.74167 93.816 9.40833 93.416 9.175C93.0327 8.94167 92.541 8.825 91.941 8.825C91.3577 8.825 90.8493 8.95 90.416 9.2C89.9827 9.43333 89.6493 9.76667 89.416 10.2C89.1827 10.6333 89.066 11.1417 89.066 11.725V16.725C89.066 17.0083 89.041 17.2667 88.991 17.5C88.941 17.7167 88.8077 17.8917 88.591 18.025C88.391 18.1583 88.0493 18.225 87.566 18.225Z" fill="#2E266D"/>
</svg>
